<svg xmlns="http://www.w3.org/2000/svg" xml:space="preserve" viewBox="0 0 256 256">
  <g fill="none" stroke="#000" stroke-miterlimit="10" stroke-width="4">
    <path fill="#fff" d="M159.4 47 62.6 7.5C56 4.7 48.6 5.8 43 10.3L26.9 23.5a6 6 0 0 0 .2 9.5l85.6 66c26.5-10.5 41.7-28.1 46.7-52zM46.6 198l-42-32.8a4.6 4.6 0 0 1 .2-7.4l10.3-7.4c3.8-2.7 8.6-3.2 12.8-1.3l36.8 16.5c2.2 14.2-4.6 24.7-18.1 32.4zm110.3-54.8 66 85.7a6 6 0 0 0 9.6.1l13.2-16.1c4.4-5.5 5.6-13 2.9-19.5l-39.7-96.9c-22.6 11.3-40.8 26.2-52 46.7zm-66.5 48.1 16.5 36.7a13 13 0 0 1-1.3 12.8L98 251.2a4.6 4.6 0 0 1-7.3.2l-32.8-42a47.3 47.3 0 0 1 32.4-18.1z"/>
    <path fill="#fff" d="M43.8 212.1C57 225.3 294.8 58 246.4 9.6S30.6 198.9 43.8 212z"/>
    <path fill="#faa" stroke-width="0" d="M206 25.3a22 22 0 0 1 13-11.6c3-1 6.1-1.7 9.6-1.4 3.4.2 7.4 1.5 10.5 4.6 3 3 4.3 7 4.6 10.4a23 23 0 0 1-1.4 9.6 21.6 21.6 0 0 1-11.7 13 50.8 50.8 0 0 0 2.6-15c0-4.4-1-8.4-2.5-9.7-1.3-1.5-5.2-2.6-9.8-2.5-4.6.1-9.4.8-14.8 2.6z"/>
  </g>
</svg>